<svg xmlns="http://www.w3.org/2000/svg" viewBox="0 0 500 500"><g id="freepik--background-complete--inject-27"><path d="M40.59,394.77a27.72,27.72,0,0,0-11.85-4.08c-1.94-.19-4-.14-5.61,1a1.11,1.11,0,0,0-.57,1,1.24,1.24,0,0,0,.54.7,17,17,0,0,0,17.49,1.32" style="fill:#e0e0e0"></path><path d="M40.29,394.44a57.84,57.84,0,0,1-7.66-6.74,19.39,19.39,0,0,1-4.8-8.87,3.6,3.6,0,0,1,.38-3c6.1,4.76,10.9,10.93,12.08,18.58" style="fill:#e0e0e0"></path><path d="M40.53,394.73a27.59,27.59,0,0,1,.14-10.05,13.65,13.65,0,0,1,5.35-8.3c1.06,2.47.6,5.31-.14,7.88a38.43,38.43,0,0,1-5.31,11.18" style="fill:#e0e0e0"></path><path d="M46.51,405.45a17.46,17.46,0,0,0-9.5,4.81,17.91,17.91,0,0,0-5.44,9.33c3.56-.22,6.58-2.73,8.77-5.55s3.71-5.91,6.12-8.54" style="fill:#e0e0e0"></path><path d="M47.81,407.16A23.4,23.4,0,0,1,50.52,385c2.06,7.35,1.3,15.67-2.71,22.17" style="fill:#e0e0e0"></path><path d="M55.71,416.57A17,17,0,0,0,39.5,425.9a1.25,1.25,0,0,0-.1,1.27,1.21,1.21,0,0,0,1.07.32c3.19-.21,6-2.13,8.36-4.32s4.37-4.72,7-6.61" style="fill:#e0e0e0"></path><path d="M55.46,416.06a30.13,30.13,0,0,1-.3-16.86c.59-2.17,1.59-4.46,3.6-5.48a.72.72,0,0,1,.55-.09.7.7,0,0,1,.35.4,10.11,10.11,0,0,1,.84,4.84,29.94,29.94,0,0,1-.75,4.89c-.64,3-1,6.21-2.61,8.79a18.16,18.16,0,0,0-1,1.94c-.31.65-.31.88-.6,1.4" style="fill:#e0e0e0"></path><path d="M76.38,419.17a21.71,21.71,0,0,1,3.81-17.87c.27-.36.64-.74,1.08-.7.69.07.86,1,.83,1.66a32.14,32.14,0,0,1-5.72,16.91" style="fill:#e0e0e0"></path><path d="M78.27,420.46a25.93,25.93,0,0,0,21.33-4.34,17.22,17.22,0,0,0-11.55-1.41c-3.86.88-7.38,2.61-9.78,5.75" style="fill:#e0e0e0"></path><path d="M79.86,416.54a24.66,24.66,0,0,1,19.36-11.2,11.89,11.89,0,0,1-6.33,7,35,35,0,0,1-9.3,2.72c-1.24.24-2.93.51-3.73,1.48" style="fill:#e0e0e0"></path><path d="M76.78,397.49a56.15,56.15,0,0,0,2.47-11.34A18.91,18.91,0,0,0,77,374.93a24.68,24.68,0,0,0-.33,22.95" style="fill:#e0e0e0"></path><path d="M89.39,391.11c4.39-8,13.33-14.32,22.37-15.21-3.49,8.69-13,15.4-22.37,15.21" style="fill:#e0e0e0"></path><path d="M86.64,392.67c6.53,1,12.1,5.17,18.21,7.7a8,8,0,0,0,4.11.79,3.56,3.56,0,0,0,3.1-2.5,3.61,3.61,0,0,0-1.08-3.2,8.69,8.69,0,0,0-3-1.81c-6.65-2.77-13.78-2.84-20.79-1.16" style="fill:#e0e0e0"></path><path d="M82.86,397.26c1.47.42,2,1.19,3.15,2.19a34.14,34.14,0,0,0,13.81,7.09c.53.13,1.22.18,1.48-.29s-.06-.92-.35-1.3a19.17,19.17,0,0,0-8.34-5.66c-3.19-1.18-6-2.61-9.75-2.31" style="fill:#e0e0e0"></path><path d="M78.59,369.57a26.13,26.13,0,0,0,20,6.82,1.37,1.37,0,0,0,.92-.33c.5-.54-.1-1.39-.69-1.85-5.89-4.59-13-6.5-20.26-4.64" style="fill:#e0e0e0"></path><path d="M83.65,367.72a27.94,27.94,0,0,1,25-4.12,19.89,19.89,0,0,1-11.91,5.23,37.55,37.55,0,0,1-13.09-1.11" style="fill:#e0e0e0"></path><path d="M81.64,355c-.58-5.88-.21-10.52-.61-16.43,0-.47-.14-1-.58-1.21-.61-.23-1.13.52-1.33,1.15a18.83,18.83,0,0,0,2.51,16.36" style="fill:#e0e0e0"></path><path d="M81.21,355.65A34.31,34.31,0,0,0,91,346.18c1.93-2.63,3.55-5.78,3.11-9a9.26,9.26,0,0,0-7,3.49,19.58,19.58,0,0,0-3.59,7.2c-.78,2.59-1.32,5.25-2.24,7.79" style="fill:#e0e0e0"></path><path d="M90.78,353a78.31,78.31,0,0,0,24-14.13c-2.86-1.15-6.14-.46-9,.69a28.37,28.37,0,0,0-15.09,13.38" style="fill:#e0e0e0"></path><path d="M83.9,358.87a48.64,48.64,0,0,0,13.31.06,56.18,56.18,0,0,0,12.43-4.13,1.45,1.45,0,0,0,.84-.64,1,1,0,0,0-.3-1.06,2.66,2.66,0,0,0-1.06-.5,23,23,0,0,0-13.43.81,62.1,62.1,0,0,0-11.79,5.46" style="fill:#e0e0e0"></path><path d="M58.64,369.78a23.58,23.58,0,0,1-.22-19.49c1.84,2.8,2.06,6.36,1.73,9.69s-1.35,6.75-1.42,10.1" style="fill:#e0e0e0"></path><path d="M46.58,363.69a27.19,27.19,0,0,0-20.2,8.61,18.88,18.88,0,0,0,11.06-2.05,57,57,0,0,0,9.48-6.35" style="fill:#e0e0e0"></path><path d="M38.47,361c-3.69-.3-7.23-.75-10.78.33a13,13,0,0,0-8.22,7,19.5,19.5,0,0,0,10.11-1.91A58,58,0,0,0,38.47,361" style="fill:#e0e0e0"></path><path d="M50.48,361.11c-3.32-2.18-6.73-4.39-10.59-5.29s-8.34-.24-11,2.67c3.13,1.84,6.92,2.06,10.54,2.05s8.07,0,11.49,1.17" style="fill:#e0e0e0"></path><path d="M50.5,361.28c-5.68-5.57-7.83-15.57-5.54-23.18a35.38,35.38,0,0,1,5.54,23.18" style="fill:#e0e0e0"></path><path d="M66.09,345.5c1.07-2.48,1.82-5.09,2.78-7.62a21.87,21.87,0,0,1,4-7,10.44,10.44,0,0,1,7-3.64,28.27,28.27,0,0,1-13.63,18.33" style="fill:#e0e0e0"></path><path d="M63.27,348.79c-1.77-2.44-3.82-5.74-6.22-7.56A10.37,10.37,0,0,0,48.6,339a19.7,19.7,0,0,0,14.67,9.78" style="fill:#e0e0e0"></path><path d="M63.83,345.71a42.21,42.21,0,0,1-2.8-9.06,14.16,14.16,0,0,1,1.42-9.22c3.11,5.89,4.12,12.2,1.54,18.34" style="fill:#e0e0e0"></path><path d="M66.12,327.43c1.76-5.83,7.1-10.12,12.87-12.09a4.73,4.73,0,0,1,2.25-.34,2,2,0,0,1,1.67,1.38c.21,1-.61,1.89-1.38,2.55a43.73,43.73,0,0,1-15.41,8.5" style="fill:#e0e0e0"></path><path d="M66.18,322.66a41.78,41.78,0,0,1,1.68-11.14c1.23-3.56,3.58-6.9,7-8.46.59,3.8-1.09,7.58-3.11,10.84s-4.46,6.36-5.67,10" style="fill:#e0e0e0"></path><path d="M66.09,325.25c-1.46-4.25-1.61-9.65-4.16-13.35-1.77-2.59-4.62-4.35-6.16-7.1a10.83,10.83,0,0,0,.36,8.06,23.47,23.47,0,0,0,4.71,6.74c1.88,2,3.5,3.52,5.25,5.65" style="fill:#e0e0e0"></path><path d="M66.12,450.45c-.12,0-.21-28.36-.22-63.34s.08-63.34.19-63.34.21,28.35.22,63.34S66.23,450.45,66.12,450.45Z" style="fill:#e0e0e0"></path><path d="M90.9,365.5a7.81,7.81,0,0,1-1.07.4l-2.93,1c-2.48.84-5.87,2.06-9.56,3.57s-7.1,2.84-9.06,4.54a6.71,6.71,0,0,0-1.82,2.41c-.28.66-.33,1.07-.37,1.06s0-.1,0-.29a4.14,4.14,0,0,1,.21-.83,6.45,6.45,0,0,1,1.78-2.57A15.78,15.78,0,0,1,72,372.34c1.57-.73,3.31-1.5,5.16-2.26,3.7-1.51,7.13-2.7,9.63-3.47,1.25-.39,2.27-.68,3-.87A5.78,5.78,0,0,1,90.9,365.5Z" style="fill:#e0e0e0"></path><path d="M99,345.54a1.6,1.6,0,0,1-.3.32l-.91.86-3.39,3.08L83.11,359.87c-4.41,3.93-8.23,7.68-10.87,10.51-1.33,1.41-2.37,2.58-3.08,3.4l-.82.94A1.74,1.74,0,0,1,68,375a1.6,1.6,0,0,1,.24-.37c.18-.22.43-.56.77-1,.67-.85,1.68-2.06,3-3.5a144.44,144.44,0,0,1,10.82-10.62c4.43-3.92,8.46-7.44,11.39-10,1.43-1.24,2.61-2.25,3.48-3l1-.8A1.78,1.78,0,0,1,99,345.54Z" style="fill:#e0e0e0"></path><path d="M78.34,363.87c-.11-.06.81-2.19,1.73-4.88s1.36-5,1.48-4.94a16.36,16.36,0,0,1-1.09,5.07,32.26,32.26,0,0,1-1.37,3.41A5.65,5.65,0,0,1,78.34,363.87Z" style="fill:#e0e0e0"></path><path d="M66.14,381a5,5,0,0,1-.68-.79L63.72,378c-1.46-1.9-3.49-4.51-5.75-7.36s-4.36-5.43-5.87-7.28l-1.78-2.21a4.47,4.47,0,0,1-.61-.84,5.34,5.34,0,0,1,.73.74c.46.49,1.1,1.22,1.88,2.12,1.57,1.81,3.69,4.35,6,7.21s4.26,5.5,5.66,7.44c.71,1,1.26,1.76,1.64,2.32A4.15,4.15,0,0,1,66.14,381Z" style="fill:#e0e0e0"></path><path d="M60.71,374.05a9.8,9.8,0,0,1-2.28-4.26,12.08,12.08,0,0,1-.51-4.29h.18c-.08.33-.14.5-.18.5s0-.19,0-.53l.18,0a19,19,0,0,0,.73,4.18A30.74,30.74,0,0,0,60.71,374.05Z" style="fill:#e0e0e0"></path><path d="M53.69,365.23a7.41,7.41,0,0,0-1.59-.92,10.64,10.64,0,0,0-4.41-.35,27,27,0,0,0-4.44.71,12.73,12.73,0,0,1-1.83.44,6.41,6.41,0,0,1,1.75-.72,20.23,20.23,0,0,1,4.49-.84,9.5,9.5,0,0,1,4.55.49A2.74,2.74,0,0,1,53.69,365.23Z" style="fill:#e0e0e0"></path><path d="M52,363.09c0,.06-.92-.37-2.43-.89A25.69,25.69,0,0,0,43.52,361a25.37,25.37,0,0,0-6.2.32c-1.57.28-2.52.57-2.54.51a2,2,0,0,1,.65-.28,14.69,14.69,0,0,1,1.84-.52,21.82,21.82,0,0,1,12.42.95,14.89,14.89,0,0,1,1.74.79A2.84,2.84,0,0,1,52,363.09Z" style="fill:#e0e0e0"></path><path d="M66.09,354.05a49.89,49.89,0,0,1-1.78-6.17,50.87,50.87,0,0,1-1.38-6.27,49.24,49.24,0,0,1,1.78,6.17A50.45,50.45,0,0,1,66.09,354.05Z" style="fill:#e0e0e0"></path><path d="M66.2,354.05a28.81,28.81,0,0,0-2-3.7,16.84,16.84,0,0,0-2.89-3,2.76,2.76,0,0,1,1.11.58,9,9,0,0,1,2.12,2.18A8.2,8.2,0,0,1,66.2,354.05Z" style="fill:#e0e0e0"></path><path d="M66.12,435.33c-.05,0-.13-.68-.45-1.89a27,27,0,0,0-1.9-4.91,67.53,67.53,0,0,0-10.05-14.16c-2.24-2.57-4.42-5-6.27-7.3A53,53,0,0,1,43,400.6a31.11,31.11,0,0,1-2.26-4.8c-.21-.59-.36-1.06-.44-1.37a3,3,0,0,1-.12-.49s.24.64.71,1.8a35.77,35.77,0,0,0,2.36,4.71,54.55,54.55,0,0,0,4.53,6.38c1.86,2.29,4,4.7,6.29,7.27a64.38,64.38,0,0,1,10,14.31,24.35,24.35,0,0,1,1.78,5c.14.62.22,1.1.26,1.43A2.65,2.65,0,0,1,66.12,435.33Z" style="fill:#e0e0e0"></path><path d="M88.51,410a9.81,9.81,0,0,1-1.17.66,27,27,0,0,0-3,2,35.08,35.08,0,0,0-4,3.65c-1.41,1.48-2.85,3.2-4.33,5-3,3.7-5.71,7-7.36,9.59-.84,1.3-1.45,2.39-1.85,3.16a11.1,11.1,0,0,1-.64,1.18s0-.12.11-.34.2-.52.39-.91a29,29,0,0,1,1.75-3.25,107.16,107.16,0,0,1,7.28-9.69c1.48-1.85,2.94-3.57,4.37-5.05a33.06,33.06,0,0,1,4.1-3.62,21.09,21.09,0,0,1,3.14-1.92c.39-.19.71-.31.92-.4A1.4,1.4,0,0,1,88.51,410Z" style="fill:#e0e0e0"></path><path d="M89,418.24a18.16,18.16,0,0,1-2.48.36,32.4,32.4,0,0,0-5.88,1.16,17.6,17.6,0,0,0-5.27,2.76c-1.22.94-1.79,1.72-1.85,1.67a2,2,0,0,1,.37-.57,9.54,9.54,0,0,1,1.29-1.32,16,16,0,0,1,5.33-2.93,27,27,0,0,1,6-1.06A14.16,14.16,0,0,1,89,418.24Z" style="fill:#e0e0e0"></path><path d="M74.2,423.29c-.13-.07,1-1.78,1.85-4.08s1-4.35,1.15-4.32a3.46,3.46,0,0,1,0,1.33,13.86,13.86,0,0,1-.72,3.13A14.75,14.75,0,0,1,75,422.23,4.08,4.08,0,0,1,74.2,423.29Z" style="fill:#e0e0e0"></path><path d="M95.76,388s-.13.09-.39.21l-1.17.53c-.51.22-1.13.5-1.83.87s-1.52.73-2.37,1.24l-1.35.77c-.47.27-.93.59-1.43.9-1,.61-2,1.35-3.06,2.11a58.27,58.27,0,0,0-6.4,5.63,57.17,57.17,0,0,0-5.4,6.59c-.73,1.09-1.44,2.11-2,3.13-.29.5-.59,1-.85,1.46l-.72,1.38c-.48.86-.83,1.69-1.16,2.41s-.61,1.34-.81,1.85l-.49,1.19a1.65,1.65,0,0,1-.19.4s0-.15.12-.43.24-.72.41-1.21.42-1.17.74-1.89.65-1.57,1.12-2.45l.7-1.4c.25-.49.55-1,.84-1.48.56-1,1.27-2.07,2-3.18A54.89,54.89,0,0,1,77.47,400a55.87,55.87,0,0,1,6.46-5.64c1.08-.76,2.1-1.5,3.11-2.09.5-.31,1-.62,1.45-.89l1.37-.75c.87-.5,1.7-.85,2.41-1.2a18.92,18.92,0,0,1,1.87-.8l1.2-.46Z" style="fill:#e0e0e0"></path><path d="M78,399.88a2.77,2.77,0,0,1,1-1.45,6.16,6.16,0,0,1,3.93-1.51,10.82,10.82,0,0,1,4.13.81,5.83,5.83,0,0,1,1.57.76A10.28,10.28,0,0,1,87,398a12.55,12.55,0,0,0-4-.67,6.41,6.41,0,0,0-3.75,1.32A11.75,11.75,0,0,0,78,399.88Z" style="fill:#e0e0e0"></path><path d="M75.39,402.61A14.62,14.62,0,0,0,76.51,399a15.12,15.12,0,0,0-.25-3.78,2.51,2.51,0,0,1,.46,1.05,7.46,7.46,0,0,1,.19,2.78,7.38,7.38,0,0,1-.83,2.66C75.74,402.32,75.43,402.64,75.39,402.61Z" style="fill:#e0e0e0"></path><path d="M46.53,439.39c.61,10.84,3.88,21.86,8.9,33H77.28c4.79-11,7.83-22,8.37-33Z" style="fill:#e0e0e0"></path><path d="M82.11,456.93c0,.11-7.2.2-16.07.2S50,457,50,456.93s7.19-.21,16.06-.21S82.11,456.82,82.11,456.93Z" style="fill:#fafafa"></path><path d="M81.62,460.85c0,.12-6.74.21-15.06.21S51.5,461,51.5,460.85s6.74-.2,15.06-.2S81.62,460.74,81.62,460.85Z" style="fill:#fafafa"></path><path d="M55.78,446.51a60.35,60.35,0,0,1,0,10.06,63.35,63.35,0,0,1,0-10.06Z" style="fill:#fafafa"></path><path d="M67.49,446.51a68,68,0,0,1,0,10.42,64.73,64.73,0,0,1,0-10.42Z" style="fill:#fafafa"></path><path d="M78.47,446.42a67.37,67.37,0,0,1,0,10.63,70.72,70.72,0,0,1,0-10.63Z" style="fill:#fafafa"></path><path d="M85,446.51c0,.11-8.43.2-18.84.2s-18.84-.09-18.84-.2,8.44-.21,18.84-.21S85,446.39,85,446.51Z" style="fill:#fafafa"></path><path d="M449.07,388.35c-.05,0-.1-.76-.37-2.1a26,26,0,0,0-1.67-5.52,21,21,0,0,0-4.77-7,13.33,13.33,0,0,0-18.72-.06,20.85,20.85,0,0,0-4.8,7,25.63,25.63,0,0,0-1.7,5.51c-.27,1.34-.32,2.1-.38,2.09a2.3,2.3,0,0,1,0-.55c0-.36.07-.89.17-1.57a23.9,23.9,0,0,1,1.56-5.62,20.92,20.92,0,0,1,4.81-7.19,13.69,13.69,0,0,1,19.37.07,20.69,20.69,0,0,1,4.78,7.2,23.38,23.38,0,0,1,1.54,5.63,14.75,14.75,0,0,1,.17,1.57A2.05,2.05,0,0,1,449.07,388.35Z" style="fill:#e0e0e0"></path><path d="M454.67,388.35c-.05,0-.11-.76-.37-2.1a26,26,0,0,0-1.67-5.52,21.08,21.08,0,0,0-4.78-7,13.33,13.33,0,0,0-18.72-.06,21,21,0,0,0-4.8,7,26.08,26.08,0,0,0-1.69,5.51c-.27,1.34-.33,2.1-.38,2.09a1.77,1.77,0,0,1,0-.55,14.75,14.75,0,0,1,.17-1.57,23.42,23.42,0,0,1,1.56-5.62,20.92,20.92,0,0,1,4.81-7.19,13.69,13.69,0,0,1,19.37.07,20.83,20.83,0,0,1,4.78,7.2,24.36,24.36,0,0,1,1.54,5.63,14.2,14.2,0,0,1,.16,1.57A1.88,1.88,0,0,1,454.67,388.35Z" style="fill:#e0e0e0"></path><polygon points="400.65 386.35 463.85 385.87 465.23 472.02 394.31 472.02 400.65 386.35" style="fill:#ebebeb"></polygon><polygon points="463.85 385.87 471.79 385.87 478.62 472.02 465.23 472.02 463.85 385.87" style="fill:#e0e0e0"></polygon><rect x="409.08" y="419.79" width="41.38" height="6.93" style="fill:#fff"></rect><rect x="25.76" y="58.2" width="72.12" height="119.38" style="fill:#e0e0e0"></rect><rect x="23.36" y="58.2" width="72.12" height="119.38" style="fill:#ebebeb"></rect><rect x="26.43" y="60.62" width="65.98" height="114.54" style="fill:#fff"></rect><rect x="38.99" y="75.5" width="40.57" height="84.77" style="fill:#ebebeb"></rect><path d="M39,130.28c-.09-7.92,7-15.65,14.87-16.76,3.74-.52,7.71.22,11.21-1.21,6.23-2.56,8.22-10.85,14.49-13.31l.29,61.28H39Z" style="fill:#e0e0e0"></path><rect x="412.05" y="130.43" width="59.98" height="62.53" style="fill:#e0e0e0"></rect><rect x="407.99" y="130.43" width="59.98" height="62.53" style="fill:#f5f5f5"></rect><path d="M468,193H408V130.41h60Zm-60,0H468V130.45H408Z" style="fill:#e0e0e0"></path><rect x="416.05" y="138.84" width="43.86" height="45.72" style="fill:#fff"></rect><path d="M416.05,184.86a6.86,6.86,0,0,1-1.08,1.26c-.7.74-1.68,1.74-2.79,2.82s-2.11,2.06-2.86,2.74a6.85,6.85,0,0,1-1.27,1.06,7,7,0,0,1,1.08-1.25c.7-.74,1.68-1.74,2.79-2.83s2.12-2.06,2.87-2.75A7.05,7.05,0,0,1,416.05,184.86Z" style="fill:#e0e0e0"></path><path d="M459.91,184.75a6.86,6.86,0,0,1,1.26,1.08c.74.7,1.74,1.68,2.82,2.79s2.06,2.11,2.75,2.86a7,7,0,0,1,1.05,1.27,7,7,0,0,1-1.25-1.08c-.74-.7-1.74-1.69-2.83-2.79s-2.06-2.13-2.75-2.87A7.05,7.05,0,0,1,459.91,184.75Z" style="fill:#e0e0e0"></path><path d="M459.79,139a7.4,7.4,0,0,1,1.08-1.26c.7-.74,1.69-1.74,2.79-2.83s2.12-2.05,2.86-2.74a6.5,6.5,0,0,1,1.27-1,7.07,7.07,0,0,1-1.07,1.25c-.7.74-1.69,1.74-2.8,2.83s-2.12,2.06-2.87,2.75A7.05,7.05,0,0,1,459.79,139Z" style="fill:#e0e0e0"></path><path d="M415.93,139.07a6.86,6.86,0,0,1-1.26-1.08c-.73-.7-1.73-1.69-2.82-2.79s-2.06-2.12-2.74-2.86a6.85,6.85,0,0,1-1.06-1.27,6.67,6.67,0,0,1,1.25,1.07c.74.7,1.75,1.69,2.83,2.8s2.07,2.12,2.75,2.87A7.05,7.05,0,0,1,415.93,139.07Z" style="fill:#e0e0e0"></path><path d="M459.79,184.55a1.76,1.76,0,0,1,0-.22c0-.15,0-.36,0-.64,0-.57,0-1.39,0-2.46,0-2.17,0-5.32,0-9.32,0-8,0-19.42-.09-33.07l.17.17-43.73,0h0l.2-.19c0,16.78,0,32.47,0,45.71l-.17-.16,31.67.08,8.9.05H459l-2.33,0-8.85,0-31.78.08h-.16v-.17c0-13.24,0-28.93,0-45.71v-.2h.2l43.73,0H460v.17c0,13.7-.07,25.14-.09,33.18,0,4,0,7.12,0,9.28,0,1,0,1.87,0,2.43,0,.27,0,.47,0,.62A1.23,1.23,0,0,1,459.79,184.55Z" style="fill:#e0e0e0"></path><rect x="430.66" y="154.38" width="14.63" height="14.63" style="fill:#ebebeb"></rect></g><g id="freepik--Floor--inject-27"><path d="M455.69,472c0,.14-92.1.26-205.69.26S44.29,472.16,44.29,472s92.08-.26,205.71-.26S455.69,471.88,455.69,472Z" style="fill:#263238"></path></g><g id="freepik--Icon--inject-27"><rect x="379.68" y="215.42" width="73.96" height="73.96" rx="13.99" style="fill:#FF725E"></rect><path d="M426.69,262h-4.46a.5.5,0,1,1,0-1h3.95l-.58-17.13a.49.49,0,0,1,.38-.5.48.48,0,0,1,.56.28l1.94,4.4,6.13-3.07c-2.26-4.57-4.81-9.49-5.24-9.93a6.59,6.59,0,0,0-1.62-1,10.26,10.26,0,0,0-1.07-.46c-1.66-.61-4-1.23-4.95-1.47a5.53,5.53,0,0,1-5,2.94c-3.36-.17-4.67-2.06-5.1-2.94-.93.24-3.27.85-4.87,1.44h0a8.72,8.72,0,0,0-1.11.47,6.59,6.59,0,0,0-1.64,1c-.44.44-3,5.36-5.25,9.93l6.14,3.07,1.93-4.4a.5.5,0,0,1,.56-.28.51.51,0,0,1,.39.5L407.25,261h9a.5.5,0,0,1,0,1h-9.51a.51.51,0,0,1-.36-.15.54.54,0,0,1-.14-.36l.42-15.11-1.12,2.55a.51.51,0,0,1-.29.27.48.48,0,0,1-.39,0l-7-3.52a.51.51,0,0,1-.22-.67c.81-1.64,4.89-9.87,5.65-10.63a7.18,7.18,0,0,1,1.89-1.17,10.31,10.31,0,0,1,1.15-.5c2.16-.8,5.34-1.57,5.47-1.6a.48.48,0,0,1,.59.34c0,.1.81,2.49,4.33,2.67,3.5-.18,4.27-2.65,4.27-2.67a.48.48,0,0,1,.59-.34c.14,0,3.31.8,5.39,1.57h0l.06,0a11.3,11.3,0,0,1,1.2.52,7.18,7.18,0,0,1,1.87,1.16c.76.76,4.84,9,5.65,10.63a.5.5,0,0,1-.23.67l-7,3.52a.48.48,0,0,1-.39,0,.49.49,0,0,1-.28-.27l-1.11-2.52.51,15.08a.46.46,0,0,1-.14.36A.51.51,0,0,1,426.69,262Z" style="fill:#fff"></path><path d="M419.67,262h-1.41a.5.5,0,0,1,0-1h1.41a.5.5,0,0,1,0,1Z" style="fill:#fff"></path><path d="M396,268.63h-2.56v-1.51h7v1.51h-2.56v6.5H396Z" style="fill:#fff"></path><path d="M400.64,271.19h3.23v1.43h-3.23Z" style="fill:#fff"></path><path d="M404.62,274.34l.63-1.4a4.71,4.71,0,0,0,2.64.84c1.1,0,1.54-.37,1.54-.86,0-1.5-4.65-.47-4.65-3.45,0-1.36,1.09-2.49,3.37-2.49a5.35,5.35,0,0,1,2.78.71l-.57,1.41a4.44,4.44,0,0,0-2.22-.63c-1.1,0-1.52.41-1.52.91,0,1.48,4.66.46,4.66,3.4,0,1.34-1.11,2.48-3.4,2.48A5.7,5.7,0,0,1,404.62,274.34Z" style="fill:#fff"></path><path d="M419.89,267.12v8H418v-3.29h-3.64v3.29h-1.85v-8h1.85v3.15H418v-3.15Z" style="fill:#fff"></path><path d="M421.78,267.12h1.85v8h-1.85Z" style="fill:#fff"></path><path d="M430.63,275.13l-1.54-2.24h-1.7v2.24h-1.86v-8H429c2.14,0,3.48,1.11,3.48,2.9a2.61,2.61,0,0,1-1.65,2.53l1.8,2.58Zm-1.73-6.5h-1.51v2.79h1.51c1.13,0,1.7-.53,1.7-1.4S430,268.63,428.9,268.63Z" style="fill:#fff"></path><path d="M435.48,268.63h-2.56v-1.51h7v1.51h-2.56v6.5h-1.86Z" style="fill:#fff"></path></g><g id="freepik--Bag--inject-27"><path d="M417.58,418a28.41,28.41,0,0,0-1.74-6.37,17.5,17.5,0,0,0-4-5.84,11.11,11.11,0,0,0-15.62-.06,17.4,17.4,0,0,0-4,5.83,28.23,28.23,0,0,0-1.77,6.36,1.35,1.35,0,0,1,0-.46,11,11,0,0,1,.14-1.32,19.53,19.53,0,0,1,1.29-4.72,17.49,17.49,0,0,1,4-6,11.5,11.5,0,0,1,16.28.05,17.71,17.71,0,0,1,4,6.05,19.79,19.79,0,0,1,1.27,4.72,10.77,10.77,0,0,1,.13,1.32A1.4,1.4,0,0,1,417.58,418Z" style="fill:#263238"></path><path d="M422.27,418a28.41,28.41,0,0,0-1.74-6.37,17.5,17.5,0,0,0-4-5.84,11.11,11.11,0,0,0-15.62-.06,17.59,17.59,0,0,0-4,5.83,28.47,28.47,0,0,0-1.76,6.36,1.35,1.35,0,0,1,0-.46,13,13,0,0,1,.13-1.32,20.13,20.13,0,0,1,1.3-4.72,17.49,17.49,0,0,1,4-6,11.5,11.5,0,0,1,16.28.05,17.52,17.52,0,0,1,4,6.05,19.9,19.9,0,0,1,1.28,4.72,10.77,10.77,0,0,1,.13,1.32A1.4,1.4,0,0,1,422.27,418Z" style="fill:#263238"></path><polygon points="374.67 415.19 427.62 414.87 428.77 472.34 369.36 472.34 374.67 415.19" style="fill:#455a64"></polygon><polygon points="427.62 414.87 434.26 414.87 439.99 472.34 428.77 472.34 427.62 414.87" style="fill:#263238"></polygon><rect x="383.93" y="434.39" width="34.66" height="5.81" style="fill:#fff"></rect></g><g id="freepik--Device--inject-27"><path d="M377.61,449.52H129.45a12.37,12.37,0,0,1-12.16-12.58V57.6A12.38,12.38,0,0,1,129.45,45H377.62A12.38,12.38,0,0,1,389.78,57.6V436.94A12.38,12.38,0,0,1,377.61,449.52Z" style="fill:#e0e0e0"></path><path d="M377.61,449.52l.87-.06a7,7,0,0,0,1.06-.13A10.64,10.64,0,0,0,381,449a12.1,12.1,0,0,0,3.74-1.92,12.33,12.33,0,0,0,3.67-4.47,12.82,12.82,0,0,0,1.09-3.32,20.41,20.41,0,0,0,.21-3.89c0-2.74,0-5.74,0-9,0-6.49,0-14,0-22.41,0-33.72-.05-82.52-.09-142.81,0-30.15,0-63.17,0-98.62q0-26.58,0-54.93,0-14.17,0-28.74V64.24c0-2.45,0-4.94,0-7.39a11.75,11.75,0,0,0-.72-3.56,12.27,12.27,0,0,0-7.58-7.46,12.8,12.8,0,0,0-3.63-.57H129.48a11.75,11.75,0,0,0-7.71,2.92,12.45,12.45,0,0,0-4,7.2,23.71,23.71,0,0,0-.2,4.23V172.46c0,43.38,0,85.23,0,125.1s0,77.74,0,113.19q0,13.31,0,26.13a13.13,13.13,0,0,0,1.49,6,12.17,12.17,0,0,0,6.94,5.85,12,12,0,0,0,3,.52c2.06.06,4.14,0,6.19,0l47.32,0,142.8.08,38.83.05,10.1,0,3.43,0-3.43,0-10.1,0-38.83.05-142.8.08-47.32,0c-2.06,0-4.11,0-6.21,0a12.28,12.28,0,0,1-3.12-.53,12.62,12.62,0,0,1-7.18-6.05,13.45,13.45,0,0,1-1.54-6.23q0-12.83,0-26.13c0-35.45,0-73.33,0-113.19s0-81.72,0-125.1V59.63a24.24,24.24,0,0,1,.21-4.32,12.92,12.92,0,0,1,4.19-7.5,12.33,12.33,0,0,1,8-3H377.57a13.1,13.1,0,0,1,3.78.6,12.49,12.49,0,0,1,6.08,4.42,12,12,0,0,1,1.79,3.33,12.38,12.38,0,0,1,.76,3.7c.07,2.5,0,5,0,7.41V78.9q0,14.56,0,28.74,0,28.32,0,54.93c0,35.45,0,68.47,0,98.62,0,60.29-.06,109.09-.08,142.81,0,8.43,0,15.92,0,22.41,0,3.24,0,6.24,0,9a19.87,19.87,0,0,1-.23,3.91,12.68,12.68,0,0,1-1.11,3.35,12.48,12.48,0,0,1-3.72,4.49A12.1,12.1,0,0,1,381,449a10.47,10.47,0,0,1-1.46.33,8.49,8.49,0,0,1-1.07.12Z" style="fill:#263238"></path><path d="M258.28,431.12a11.56,11.56,0,1,1-11.55-11.35A11.45,11.45,0,0,1,258.28,431.12Z" style="fill:#fff"></path><path d="M281.45,66.4H225.8a4,4,0,0,1-3.88-4h0a4,4,0,0,1,3.88-4h55.65a4,4,0,0,1,3.88,4h0A4,4,0,0,1,281.45,66.4Z" style="fill:#263238"></path><rect x="125.64" y="73.88" width="255.31" height="337.8" style="fill:#fff"></rect><path d="M381,411.69c0-2.05-.1-137.6-.23-337.81l.23.23-255.28,0h0l.26-.26c0,125.74,0,242.32-.05,337.81l-.21-.22,255.31.22-255.31.21h-.21v-.21c0-95.49,0-212.07,0-337.81v-.26h.28l255.28,0h.23v.23C381,274.09,381,409.64,381,411.69Z" style="fill:#263238"></path><path d="M106,92.57h49.36a0,0,0,0,1,0,0v33a22.82,22.82,0,0,1-22.82,22.82h-3.72A22.82,22.82,0,0,1,106,125.59v-33a0,0,0,0,1,0,0Z" style="fill:#FF725E"></path><path d="M155,92.57h49.36a0,0,0,0,1,0,0v33a22.82,22.82,0,0,1-22.82,22.82h-3.72A22.82,22.82,0,0,1,155,125.59v-33a0,0,0,0,1,0,0Z" style="fill:#FF725E"></path><path d="M204,92.57h49.36a0,0,0,0,1,0,0v33a22.82,22.82,0,0,1-22.82,22.82h-3.72A22.82,22.82,0,0,1,204,125.59v-33A0,0,0,0,1,204,92.57Z" style="fill:#FF725E"></path><path d="M253,92.57h49.35a0,0,0,0,1,0,0v33a22.82,22.82,0,0,1-22.82,22.82h-3.72A22.82,22.82,0,0,1,253,125.59v-33A0,0,0,0,1,253,92.57Z" style="fill:#FF725E"></path><path d="M301.92,92.57h49.36a0,0,0,0,1,0,0v33a22.82,22.82,0,0,1-22.82,22.82h-3.72a22.82,22.82,0,0,1-22.82-22.82v-33A0,0,0,0,1,301.92,92.57Z" style="fill:#FF725E"></path><path d="M350.89,92.57h49.36a0,0,0,0,1,0,0v33a22.82,22.82,0,0,1-22.82,22.82h-3.72a22.82,22.82,0,0,1-22.82-22.82v-33A0,0,0,0,1,350.89,92.57Z" style="fill:#FF725E"></path><g style="opacity:0.30000000000000004"><path d="M155,92.57h49.36a0,0,0,0,1,0,0v33a22.82,22.82,0,0,1-22.82,22.82h-3.72A22.82,22.82,0,0,1,155,125.59v-33a0,0,0,0,1,0,0Z" style="fill:#fff"></path></g><g style="opacity:0.30000000000000004"><path d="M253,92.57h49.35a0,0,0,0,1,0,0v33a22.82,22.82,0,0,1-22.82,22.82h-3.72A22.82,22.82,0,0,1,253,125.59v-33A0,0,0,0,1,253,92.57Z" style="fill:#fff"></path></g><g style="opacity:0.30000000000000004"><path d="M350.89,92.57h49.36a0,0,0,0,1,0,0v33a22.82,22.82,0,0,1-22.82,22.82h-3.72a22.82,22.82,0,0,1-22.82-22.82v-33A0,0,0,0,1,350.89,92.57Z" style="fill:#fff"></path></g><path d="M155.41,92c.14,0,.26,8.66.26,19.34s-.12,19.34-.26,19.34-.26-8.66-.26-19.34S155.27,92,155.41,92Z" style="fill:#263238"></path><path d="M204.38,92c.14,0,.25,8.66.25,19.34s-.11,19.34-.25,19.34-.26-8.66-.26-19.34S204.23,92,204.38,92Z" style="fill:#263238"></path><path d="M253.35,92c.14,0,.25,8.66.25,19.34s-.11,19.34-.25,19.34-.26-8.66-.26-19.34S253.2,92,253.35,92Z" style="fill:#263238"></path><path d="M302.31,92c.15,0,.26,8.66.26,19.34s-.11,19.34-.26,19.34-.25-8.66-.25-19.34S302.17,92,302.31,92Z" style="fill:#263238"></path><path d="M351.28,92c.15,0,.26,8.66.26,19.34s-.11,19.34-.26,19.34S351,122,351,111.3,351.14,92,351.28,92Z" style="fill:#263238"></path><polygon points="400.25 92.67 381.13 73.88 125.73 73.88 106.05 92.67 400.25 92.67" style="fill:#FF725E"></polygon><path d="M393.25,92.41c0,.14-64.3.31-143.59.39s-143.61,0-143.61-.13,64.28-.32,143.61-.39S393.25,92.26,393.25,92.41Z" style="fill:#263238"></path><rect x="150.6" y="260.83" width="38.74" height="7.92" rx="3.39" style="fill:#e0e0e0"></rect><rect x="217.63" y="260.3" width="18.76" height="7.32" rx="3.39" style="fill:#FF725E"></rect><rect x="150.6" y="391.07" width="38.74" height="7.92" rx="3.39" style="fill:#e0e0e0"></rect><rect x="212.9" y="391.07" width="20.29" height="7.92" rx="3.39" style="fill:#FF725E"></rect><rect x="278.1" y="261.97" width="38.74" height="7.92" rx="3.39" style="fill:#e0e0e0"></rect><rect x="340.53" y="261.97" width="20.29" height="7.92" rx="3.39" style="fill:#FF725E"></rect><rect x="278.54" y="392.22" width="38.74" height="7.92" rx="3.39" style="fill:#e0e0e0"></rect><rect x="340.97" y="392.22" width="20.29" height="7.92" rx="3.39" style="fill:#FF725E"></rect><rect x="143.79" y="158.25" width="91.1" height="91.1" rx="11.65" style="fill:#fafafa"></rect><path d="M223.25,249.36s.3,0,.88-.07a14,14,0,0,0,2.55-.5,12.16,12.16,0,0,0,3.7-2,11.65,11.65,0,0,0,3.46-4.51,12.12,12.12,0,0,0,.87-3.3c.1-1.19.06-2.46.06-3.79,0-2.65,0-5.53,0-8.62,0-6.19,0-13.24,0-21s0-16.32,0-25.48q0-3.44,0-7c0-2.36.21-4.8-.69-7.05a11.46,11.46,0,0,0-4.4-5.64,11.9,11.9,0,0,0-7.11-1.91l-67,0a11.4,11.4,0,0,0-11.37,10.72c-.07,5.76,0,11.48,0,17.08,0,11.21,0,22,0,32.33q0,7.73,0,15.05c0,1.22,0,2.43,0,3.64a12.15,12.15,0,0,0,.44,3.47,11.39,11.39,0,0,0,3.66,5.68,11.25,11.25,0,0,0,6,2.59,32,32,0,0,0,3.25.08h15.45l36.91.09,10,0,2.61,0,.89,0-.89,0-2.61,0-10,.05-36.91.08-12.22,0h-3.23c-1.08,0-2.17,0-3.3-.08a12.63,12.63,0,0,1-3.28-.87,13.18,13.18,0,0,1-2.95-1.8,12,12,0,0,1-3.81-5.89,12.41,12.41,0,0,1-.45-3.59c0-1.21,0-2.42,0-3.64q0-7.32,0-15.05c0-10.3,0-21.12,0-32.33,0-5.61,0-11.29,0-17.11A11.89,11.89,0,0,1,155.45,158l67,0a12.33,12.33,0,0,1,7.37,2,12,12,0,0,1,4.57,5.87,11.55,11.55,0,0,1,.69,3.62c0,1.21,0,2.39,0,3.58v7c0,9.16,0,17.69,0,25.48s0,14.84,0,21c0,3.09,0,6,0,8.62,0,1.33,0,2.6-.09,3.82a12.6,12.6,0,0,1-.9,3.35,11.91,11.91,0,0,1-3.55,4.55,12.2,12.2,0,0,1-3.77,2,12.58,12.58,0,0,1-2.57.45Z" style="fill:#FF725E"></path><path d="M225.7,201.22s-9.41-19.06-10.85-20.51a14.3,14.3,0,0,0-3.44-2.1,17.64,17.64,0,0,0-2.17-.94l-.15-.06h0c-4.06-1.5-10.42-3-10.42-3s-1.62,5.52-9.33,5.92c-7.7-.4-9.32-5.92-9.32-5.92s-6.37,1.54-10.42,3h0l-.16.06a17.42,17.42,0,0,0-2.16.94,13.91,13.91,0,0,0-3.44,2.1c-1.45,1.45-10.85,20.51-10.85,20.51l13.75,6.88,4.18-9.51L170,233h39l-1.17-34.45,4.18,9.51Z" style="fill:#FF725E"></path><path d="M170.92,207.12a21.37,21.37,0,0,1-.1-3.15c0-2,0-4.68.08-7.75l0,.1-.55-1.36c-1.26-3.18-2.38-6.06-3.17-8.15-.39-1.05-.7-1.9-.9-2.5a4.08,4.08,0,0,1-.27-.93,3.46,3.46,0,0,1,.45.86c.27.57.63,1.4,1.06,2.43.87,2.06,2,4.92,3.31,8.09.18.47.37.93.54,1.37l0,.05v0c-.07,3.07-.16,5.79-.25,7.75A20.21,20.21,0,0,1,170.92,207.12Z" style="fill:#263238"></path><path d="M207.68,207.12a21.21,21.21,0,0,1-.23-3.14c-.09-2-.18-4.68-.25-7.75v0l0-.05c.17-.44.35-.9.54-1.37,1.26-3.17,2.43-6,3.31-8.09.43-1,.79-1.86,1.05-2.43s.42-.88.46-.86a4.08,4.08,0,0,1-.27.93c-.2.6-.51,1.45-.91,2.5-.78,2.09-1.9,5-3.16,8.15l-.55,1.36,0-.1c.06,3.07.08,5.79.08,7.75A20.35,20.35,0,0,1,207.68,207.12Z" style="fill:#263238"></path><path d="M200.07,203.8s.39,0,1.05-.21a4.53,4.53,0,0,0,3.25-3.44,14.63,14.63,0,0,0,.07-2.43c0-1.77,0-3.73,0-5.83l.25.24H193.82l.25-.25c0,2.31,0,4.48,0,6.44,0,.49,0,1,0,1.4a4.34,4.34,0,0,0,1.69,3,4.81,4.81,0,0,0,3.09,1,6.27,6.27,0,0,1,1.23.08,5.69,5.69,0,0,1-1.23.09,4.8,4.8,0,0,1-3.28-.88,4.72,4.72,0,0,1-1.54-1.89,4.82,4.82,0,0,1-.37-1.34c-.05-.49,0-1-.05-1.45,0-2,0-4.13,0-6.44v-.25H204.9v.25c0,2.1,0,4.06,0,5.83a13.59,13.59,0,0,1-.13,2.5,4.75,4.75,0,0,1-1,2,4.54,4.54,0,0,1-2.6,1.57,3.39,3.39,0,0,1-.81.08C200.17,203.83,200.07,203.82,200.07,203.8Z" style="fill:#263238"></path><rect x="143.79" y="287.31" width="91.1" height="91.1" rx="11.65" style="fill:#fafafa"></rect><path d="M223.25,378.42s.3,0,.88-.08a13,13,0,0,0,2.55-.49,12.16,12.16,0,0,0,3.7-2,11.65,11.65,0,0,0,3.46-4.51,12.12,12.12,0,0,0,.87-3.3c.1-1.19.06-2.46.06-3.79,0-2.65,0-5.53,0-8.62,0-6.19,0-13.24,0-21s0-16.32,0-25.48q0-3.43,0-7c0-2.36.21-4.8-.69-7a11.46,11.46,0,0,0-4.4-5.64,11.9,11.9,0,0,0-7.11-1.91l-67,0a11.4,11.4,0,0,0-11.37,10.72c-.07,5.75,0,11.48,0,17.08,0,11.21,0,22,0,32.33q0,7.73,0,15.05c0,1.22,0,2.43,0,3.64a12.15,12.15,0,0,0,.44,3.47,11.44,11.44,0,0,0,3.66,5.68,11.25,11.25,0,0,0,6,2.59,32,32,0,0,0,3.25.08h15.45l36.91.09,10,0,2.61,0,.89,0-.89,0-2.61,0-10,0-36.91.08H157.36c-1.08,0-2.17,0-3.3-.08a12.63,12.63,0,0,1-3.28-.87,13.18,13.18,0,0,1-2.95-1.8A12,12,0,0,1,144,370a12.41,12.41,0,0,1-.45-3.59c0-1.21,0-2.42,0-3.64q0-7.32,0-15.05c0-10.3,0-21.12,0-32.33,0-5.61,0-11.3,0-17.11a11.89,11.89,0,0,1,11.88-11.2l67,0a12.33,12.33,0,0,1,7.37,2,12,12,0,0,1,4.57,5.87,11.5,11.5,0,0,1,.69,3.62c0,1.21,0,2.39,0,3.58v7c0,9.16,0,17.69,0,25.48s0,14.84,0,21c0,3.09,0,6,0,8.62,0,1.33,0,2.6-.09,3.82a12.42,12.42,0,0,1-.9,3.34,11.88,11.88,0,0,1-3.55,4.56,12.2,12.2,0,0,1-3.77,2,12.58,12.58,0,0,1-2.57.45Z" style="fill:#e0e0e0"></path><path d="M198.67,303.63s6.36,1.54,10.42,3h0l.15.06a17.64,17.64,0,0,1,2.17.94,14.3,14.3,0,0,1,3.44,2.1c1.44,1.45,10.85,20.51,10.85,20.51l-13.76,6.88-4.18-9.51,1.17,34.45H170l.95-34.45-4.18,9.51L153,330.28s9.4-19.06,10.85-20.51a13.91,13.91,0,0,1,3.44-2.1,17.42,17.42,0,0,1,2.16-.94l.16-.06h0c4.05-1.5,10.42-3,10.42-3l1.09-3.71,7.89,5.26,8.83-5.26Z" style="fill:#e0e0e0"></path><path d="M170.92,336.18a21.37,21.37,0,0,1-.1-3.15c0-2,0-4.68.08-7.75l0,.1-.55-1.37c-1.26-3.17-2.38-6.05-3.17-8.14-.39-1.05-.7-1.9-.9-2.5a3.92,3.92,0,0,1-.27-.94,4,4,0,0,1,.45.87c.27.57.63,1.4,1.06,2.43.87,2.06,2,4.92,3.31,8.09.18.47.37.93.54,1.37l0,.05v.05c-.07,3.07-.16,5.79-.25,7.75A20.21,20.21,0,0,1,170.92,336.18Z" style="fill:#263238"></path><path d="M208.06,336.46a21.74,21.74,0,0,1-.35-3.22c-.15-2-.33-4.8-.51-7.94v-.06l0-.05.48-1.23c1.28-3.21,2.47-6.1,3.35-8.19.44-1,.8-1.88,1.07-2.46a3.28,3.28,0,0,1,.46-.88,3.85,3.85,0,0,1-.28,1c-.2.59-.52,1.46-.91,2.52-.8,2.12-1.93,5-3.21,8.24l-.49,1.23,0-.11c.16,3.14.28,5.94.35,8A21.19,21.19,0,0,1,208.06,336.46Z" style="fill:#263238"></path><path d="M200.07,332.86s.39,0,1.05-.21a4.53,4.53,0,0,0,3.25-3.44,14.63,14.63,0,0,0,.07-2.43c0-1.77,0-3.73,0-5.83l.25.24H193.82l.25-.25c0,2.31,0,4.48,0,6.44,0,.49,0,1,0,1.4a4.34,4.34,0,0,0,1.69,3,4.81,4.81,0,0,0,3.09,1,6.27,6.27,0,0,1,1.23.08,5.69,5.69,0,0,1-1.23.09,4.8,4.8,0,0,1-3.28-.88,4.72,4.72,0,0,1-1.54-1.89,4.82,4.82,0,0,1-.37-1.34c-.05-.49,0-1-.05-1.45,0-2,0-4.13,0-6.44v-.25H204.9V321c0,2.1,0,4.06,0,5.83a13.59,13.59,0,0,1-.13,2.5,4.81,4.81,0,0,1-1,2,4.54,4.54,0,0,1-2.6,1.57,3.39,3.39,0,0,1-.81.08C200.17,332.89,200.07,332.88,200.07,332.86Z" style="fill:#263238"></path><path d="M168.27,333.68a54.53,54.53,0,0,1-6.88-3.26,56.55,56.55,0,0,1-6.65-3.72,55,55,0,0,1,6.89,3.26A58.67,58.67,0,0,1,168.27,333.68Z" style="fill:#263238"></path><rect x="272.36" y="159.67" width="91.1" height="91.1" rx="11.65" style="fill:#fafafa"></rect><path d="M351.81,250.77l.89-.07a12.38,12.38,0,0,0,2.54-.5,11.84,11.84,0,0,0,3.7-2,11.61,11.61,0,0,0,3.47-4.51,12.51,12.51,0,0,0,.86-3.29c.11-1.19.06-2.46.07-3.79,0-2.65,0-5.53,0-8.62,0-6.2,0-13.24,0-21s0-16.33,0-25.49q0-3.44,0-7c0-2.37.2-4.8-.69-7a11.43,11.43,0,0,0-4.41-5.64,11.81,11.81,0,0,0-7.11-1.91l-67,0a11.38,11.38,0,0,0-11.36,10.71c-.07,5.76,0,11.49,0,17.09,0,11.21,0,22,0,32.33q0,7.73,0,15.05v3.63a12.26,12.26,0,0,0,.43,3.48,11.55,11.55,0,0,0,3.66,5.67,12,12,0,0,0,2.84,1.75,11.73,11.73,0,0,0,3.16.84,32.1,32.1,0,0,0,3.26.09h3.22l12.23,0,36.9.08,10,.05,2.61,0,.89,0-.89,0-2.61,0-10,.05-36.9.09H285.93c-1.08,0-2.18,0-3.31-.09a12.32,12.32,0,0,1-3.28-.86,12.59,12.59,0,0,1-2.94-1.81,11.88,11.88,0,0,1-3.81-5.88,12.8,12.8,0,0,1-.46-3.6v-3.63q0-7.32,0-15.05c0-10.31,0-21.12,0-32.33,0-5.61,0-11.3,0-17.12A11.91,11.91,0,0,1,284,159.41l67,0a12.38,12.38,0,0,1,7.37,2A12,12,0,0,1,363,167.3a11.06,11.06,0,0,1,.69,3.62c0,1.22,0,2.4,0,3.59,0,2.36,0,4.69,0,7,0,9.16,0,17.7,0,25.49s0,14.83,0,21c0,3.09,0,6,0,8.62,0,1.33,0,2.59-.09,3.81a12.4,12.4,0,0,1-.9,3.35,11.67,11.67,0,0,1-3.55,4.55,11.85,11.85,0,0,1-3.76,2,11.47,11.47,0,0,1-2.58.45C352.11,250.78,351.81,250.77,351.81,250.77Z" style="fill:#e0e0e0"></path><path d="M327.06,176s6.36,1.54,10.42,3h0l.15.06a17.64,17.64,0,0,1,2.17.94,13.69,13.69,0,0,1,3.44,2.1c1.44,1.44,10.85,20.51,10.85,20.51l-13.76,6.88L336.15,200l1.17,34.46h-39l.95-34.46-4.18,9.52-13.75-6.88s9.4-19.07,10.85-20.51a13.34,13.34,0,0,1,3.44-2.1,17.42,17.42,0,0,1,2.16-.94L298,179h0c4.05-1.5,10.42-3,10.42-3l-.15-6.6h18.61Z" style="fill:#455a64"></path><path d="M307.86,233.6l-25.33-15.75a9.29,9.29,0,0,1-2.91-11.56l1.76-3.65,13.75,6.88,19,14.22Z" style="fill:#455a64"></path><path d="M290.19,206.64a1.62,1.62,0,0,1,.35.16l1,.52,3.69,2.07h0c4.22,3.09,11.11,8.2,19,14.14l.19.14-.12.2-2,3.19c-1.47,2.31-2.89,4.55-4.24,6.66l-.13.21-.21-.13-15.35-9.65-4.46-2.86-1.19-.79a2.43,2.43,0,0,1-.39-.29s.16.06.44.22l1.23.71,4.54,2.74L308,233.38l-.34.08c1.34-2.11,2.76-4.36,4.23-6.66l2-3.2.07.35c-7.93-6-14.77-11.13-18.92-14.32h0l-3.62-2.18-.94-.6A1.25,1.25,0,0,1,290.19,206.64Z" style="fill:#263238"></path><path d="M327.42,233.3l25.33-15.75A9.29,9.29,0,0,0,355.66,206l-1.76-3.65-13.75,6.88-19,14.23Z" style="fill:#455a64"></path><path d="M345.09,206.34a1.42,1.42,0,0,1-.31.23l-.94.59-3.62,2.19h0c-4.15,3.18-11,8.36-18.92,14.31l.06-.34,2,3.19,4.23,6.67-.34-.08,15.44-9.5,4.54-2.73,1.23-.72a2,2,0,0,1,.44-.22,2,2,0,0,1-.4.3l-1.18.78-4.46,2.86-15.35,9.65-.21.13-.13-.21L323,226.78c-.69-1.1-1.38-2.18-2-3.2l-.12-.2.19-.14c7.94-5.94,14.83-11.05,19.05-14.13h0l3.69-2.07,1-.53A1.4,1.4,0,0,1,345.09,206.34Z" style="fill:#263238"></path><path d="M311.59,176.69a12.79,12.79,0,0,1-.26-3.59,12.73,12.73,0,0,1,.26-3.59,12.73,12.73,0,0,1,.26,3.59A12.79,12.79,0,0,1,311.59,176.69Z" style="fill:#263238"></path><path d="M315.63,176.69a12.79,12.79,0,0,1-.26-3.59,12.73,12.73,0,0,1,.26-3.59,12.73,12.73,0,0,1,.26,3.59A12.79,12.79,0,0,1,315.63,176.69Z" style="fill:#263238"></path><path d="M319.32,176.61a12.79,12.79,0,0,1-.26-3.59,12.79,12.79,0,0,1,.26-3.59,12.79,12.79,0,0,1,.26,3.59A12.79,12.79,0,0,1,319.32,176.61Z" style="fill:#263238"></path><path d="M323.4,176.61a12.79,12.79,0,0,1-.26-3.59,12.79,12.79,0,0,1,.26-3.59,12.79,12.79,0,0,1,.26,3.59A12.79,12.79,0,0,1,323.4,176.61Z" style="fill:#263238"></path><polygon points="336.47 206.64 299.77 206.64 299.34 197.29 335.84 197.29 336.47 206.64" style="fill:#e0e0e0"></polygon><path d="M299.11,208.19A20.55,20.55,0,0,1,299,205c0-1.95,0-4.68.08-7.74l0,.1c-.15-.38-.3-.78-.46-1.18-1.23-3.13-2.32-6-3.08-8-.38-1-.68-1.87-.88-2.45a3.67,3.67,0,0,1-.26-.93,3.78,3.78,0,0,1,.45.85c.25.57.6,1.38,1,2.4.85,2,2,4.85,3.22,8,.15.4.31.8.46,1.18l0,.05v.05c-.07,3.06-.16,5.78-.25,7.74A20.27,20.27,0,0,1,299.11,208.19Z" style="fill:#263238"></path><path d="M336.44,208.53a19.61,19.61,0,0,1-.34-3.13c-.16-2-.34-4.68-.51-7.75v-.05l0-.06c.17-.43.35-.89.54-1.35,1.26-3.18,2.43-6,3.3-8.1.44-1,.8-1.86,1.06-2.43a4,4,0,0,1,.45-.87,3.13,3.13,0,0,1-.26.94c-.2.59-.51,1.45-.91,2.49-.78,2.1-1.9,5-3.17,8.16-.18.46-.36.92-.54,1.35l0-.1c.16,3.07.28,5.79.34,7.75A19.94,19.94,0,0,1,336.44,208.53Z" style="fill:#263238"></path><path d="M309.61,231.08a30.63,30.63,0,0,1-6.51-4.46,15,15,0,0,1,3.4,2A15.16,15.16,0,0,1,309.61,231.08Z" style="fill:#263238"></path><path d="M311.94,227.71a29.47,29.47,0,0,1-3-2.35,29.38,29.38,0,0,1-3-2.32,13.84,13.84,0,0,1,6,4.67Z" style="fill:#263238"></path><path d="M328.36,223.07a19.91,19.91,0,0,1-5.64,3.16,10.55,10.55,0,0,1,2.69-1.8A10.72,10.72,0,0,1,328.36,223.07Z" style="fill:#263238"></path><path d="M331.21,226.53a10.3,10.3,0,0,1-2.58,1.9,9.88,9.88,0,0,1-2.85,1.47,10.3,10.3,0,0,1,2.58-1.9A9.88,9.88,0,0,1,331.21,226.53Z" style="fill:#263238"></path><path d="M198.33,304a16.28,16.28,0,0,1-1.91,1.79c-1.23,1.08-3,2.59-5.06,4.35l-.23.19-.14-.27-2.26-4.37.47,0,0,.05-1.7,4.32-.13.33-.25-.23c-2.1-1.86-3.89-3.47-5.15-4.63a17.31,17.31,0,0,1-1.93-1.89,19.1,19.1,0,0,1,2.13,1.67c1.31,1.09,3.14,2.65,5.27,4.48l-.39.1,1.67-4.33,0-.06.21-.54.26.51,2.23,4.39-.37-.07c2.1-1.73,3.9-3.19,5.18-4.21A16.9,16.9,0,0,1,198.33,304Z" style="fill:#263238"></path><path d="M189.35,361.82a2.64,2.64,0,0,1-.06-.63c0-.47,0-1.08,0-1.82,0-1.65,0-3.92-.08-6.7,0-5.71,0-13.49-.07-22.08,0-6.9,0-13.27,0-18.44h.41c0,1.19,0,2.29,0,3.33h-.37c0-2.88.06-5.23.08-6.93,0-.78,0-1.4,0-1.89a2.74,2.74,0,0,1,.06-.65,4.66,4.66,0,0,1,.05.65c0,.49,0,1.11,0,1.89,0,1.7.05,4.05.08,6.93h-.37c0-1,0-2.14,0-3.33h.41c0,5.17,0,11.54,0,18.44,0,8.59,0,16.37-.07,22.08,0,2.78-.06,5.05-.08,6.7,0,.74,0,1.35,0,1.82A4.53,4.53,0,0,1,189.35,361.82Z" style="fill:#263238"></path><path d="M223.75,325.83a8.79,8.79,0,0,1-1.79,1.33c-1.14.75-2.77,1.73-4.62,2.7s-3.58,1.75-4.85,2.26a8,8,0,0,1-2.1.71c-.06-.14,3-1.49,6.71-3.43S223.66,325.71,223.75,325.83Z" style="fill:#263238"></path><rect x="272.24" y="286.71" width="91.1" height="91.1" rx="11.65" style="fill:#fafafa"></rect><path d="M351.7,377.81l.89-.07a13.11,13.11,0,0,0,2.54-.5,12.16,12.16,0,0,0,3.7-2,11.57,11.57,0,0,0,3.46-4.51,12.12,12.12,0,0,0,.87-3.3c.1-1.18.06-2.46.06-3.78q0-4,0-8.63c0-6.19,0-13.24,0-21s0-16.32,0-25.48v-7c-.05-2.36.2-4.8-.69-7.05a11.51,11.51,0,0,0-4.41-5.63,11.84,11.84,0,0,0-7.11-1.92l-67,0a11.41,11.41,0,0,0-11.37,10.72c-.07,5.76,0,11.49,0,17.08,0,11.21,0,22,0,32.33q0,7.73,0,15.05v3.64a11.91,11.91,0,0,0,.43,3.48,11.48,11.48,0,0,0,3.66,5.67,12.42,12.42,0,0,0,2.84,1.75,12.11,12.11,0,0,0,3.16.84c1.07.11,2.17.08,3.26.09H289l12.23,0,36.9.08,10,.05,2.61,0,.89,0s-.3,0-.89,0l-2.61,0-10,.05-36.9.08L289,378h-3.22c-1.08,0-2.18,0-3.31-.08a13,13,0,0,1-3.28-.86,13.6,13.6,0,0,1-3-1.81,11.9,11.9,0,0,1-3.8-5.89,12.08,12.08,0,0,1-.46-3.59v-3.64q0-7.32,0-15.05c0-10.3,0-21.12,0-32.33,0-5.61,0-11.29,0-17.11a11.91,11.91,0,0,1,11.88-11.2l67,0a12.33,12.33,0,0,1,7.37,2,11.89,11.89,0,0,1,4.57,5.87,11,11,0,0,1,.69,3.62c0,1.21,0,2.4,0,3.58q0,3.56,0,7c0,9.16,0,17.69,0,25.48s0,14.84,0,21c0,3.1,0,6,0,8.63,0,1.32,0,2.59-.09,3.81a12.5,12.5,0,0,1-.9,3.35,11.78,11.78,0,0,1-7.32,6.51,12.58,12.58,0,0,1-2.57.45Z" style="fill:#e0e0e0"></path><path d="M359,349.14s-14.23-38.53-15.68-40a14,14,0,0,0-3.44-2.11,17.64,17.64,0,0,0-2.17-.94l-.15-.06h0c-4.06-1.49-10.42-3-10.42-3s-1.62,5.52-9.33,5.92c-7.7-.4-9.32-5.92-9.32-5.92s-6.36,1.55-10.42,3h0l-.15.06a17.64,17.64,0,0,0-2.17.94,14,14,0,0,0-3.44,2.11c-1.45,1.44-14.62,40.42-14.62,40.42L289,353.47,299.38,327l-1,34.45h39L336.21,327l12.09,27.52Z" style="fill:#FF725E"></path><path d="M339.35,317c0,.15-9.58.26-21.4.26s-21.39-.11-21.39-.26,9.57-.25,21.39-.25S339.35,316.88,339.35,317Z" style="fill:#fff"></path><path d="M336.32,330.24a7.19,7.19,0,0,1-1.44.1l-3.94.08c-3.32.05-7.91.08-13,.08s-9.66,0-13-.08l-3.93-.08a7.19,7.19,0,0,1-1.44-.1,8.29,8.29,0,0,1,1.44-.1l3.93-.08c3.32-.05,7.91-.08,13-.08s9.66,0,13,.08l3.94.08A8.29,8.29,0,0,1,336.32,330.24Z" style="fill:#fff"></path><path d="M336.32,342.78a8.29,8.29,0,0,1-1.44.1l-3.94.08c-3.32,0-7.91.07-13,.07s-9.66,0-13-.07l-3.93-.08a8.29,8.29,0,0,1-1.44-.1,7.19,7.19,0,0,1,1.44-.1l3.93-.09c3.32,0,7.91-.07,13-.07s9.66,0,13,.07l3.94.09A7.19,7.19,0,0,1,336.32,342.78Z" style="fill:#fff"></path><path d="M336.32,355.31a7.19,7.19,0,0,1-1.44.1l-3.94.08c-3.32.05-7.91.08-13,.08s-9.66,0-13-.08l-3.93-.08a7.19,7.19,0,0,1-1.44-.1,7.19,7.19,0,0,1,1.44-.1l3.93-.08c3.32-.05,7.91-.08,13-.08s9.66,0,13,.08l3.94.08A7.19,7.19,0,0,1,336.32,355.31Z" style="fill:#fff"></path><path d="M299.38,335.57a20.24,20.24,0,0,1-.11-3.15c0-1.95,0-4.68.08-7.75l0,.1-.55-1.36c-1.26-3.17-2.38-6.06-3.16-8.15-.4-1.05-.71-1.9-.91-2.49a4.22,4.22,0,0,1-.27-.94s.2.29.46.86.62,1.4,1.05,2.43c.88,2.06,2.05,4.92,3.31,8.1.19.46.37.92.54,1.36l0,.05v.05c-.07,3.07-.16,5.79-.25,7.75A21.21,21.21,0,0,1,299.38,335.57Z" style="fill:#263238"></path><path d="M336.14,335.57a18.77,18.77,0,0,1-.24-3.14c-.09-2-.18-4.68-.25-7.75v-.05l0-.05c.17-.44.35-.9.54-1.36,1.26-3.18,2.44-6,3.31-8.1.43-1,.79-1.86,1.05-2.43s.42-.88.46-.86a4.22,4.22,0,0,1-.27.94c-.2.59-.51,1.44-.9,2.49-.79,2.09-1.91,5-3.17,8.15l-.55,1.36,0-.1c.06,3.07.09,5.8.08,7.75A21.26,21.26,0,0,1,336.14,335.57Z" style="fill:#263238"></path><path d="M349.59,324.54a42.31,42.31,0,0,1-5.85,3,43.36,43.36,0,0,1-6.08,2.55,42.1,42.1,0,0,1,5.86-3A41.6,41.6,0,0,1,349.59,324.54Z" style="fill:#fff"></path><path d="M353.86,335.81a39.48,39.48,0,0,1-5.62,2.82A38.35,38.35,0,0,1,342.4,341a39.48,39.48,0,0,1,5.62-2.82A38.35,38.35,0,0,1,353.86,335.81Z" style="fill:#fff"></path><path d="M298,329.61a79.13,79.13,0,0,1-11.12-6.37,41.55,41.55,0,0,1,5.69,3A40.51,40.51,0,0,1,298,329.61Z" style="fill:#fff"></path><path d="M293.65,341.54a74.51,74.51,0,0,1-11.35-5.2,37.57,37.57,0,0,1,5.78,2.37A37.22,37.22,0,0,1,293.65,341.54Z" style="fill:#fff"></path><path d="M314.33,322a16.56,16.56,0,0,1,3.23-.21l-.21.21c0-1.32-.05-3-.05-4.76,0-2.21,0-4.2.07-5.65a9.82,9.82,0,0,1,.19-2.33,11,11,0,0,1,.18,2.33c0,1.45.07,3.44.07,5.65,0,1.79,0,3.44-.05,4.76v.21h-.2A17.17,17.17,0,0,1,314.33,322Z" style="fill:#263238"></path><path d="M316.08,314.17a.88.88,0,1,1-.87-.87A.87.87,0,0,1,316.08,314.17Z" style="fill:#e0e0e0"></path><path d="M316.08,319.58a.88.88,0,1,1-.87-.88A.87.87,0,0,1,316.08,319.58Z" style="fill:#e0e0e0"></path></g><g id="freepik--Character--inject-27"><path d="M67.77,174.05l0,36.54c0,6.21,7.45,17.35,17.28,16.91h.8c8.49-1,3.66-11.12,3.66-16.92,0-2.75,0-5.05,0-5.33,0,0,9.31-.87,10-10.07.33-4.45.26-13.67.1-22a17.19,17.19,0,0,0-16.14-16.82l-.89-.05C72.93,156.28,67.53,164.43,67.77,174.05Z" style="fill:#ffbf9d"></path><path d="M89.5,205.26A22.23,22.23,0,0,1,77.73,201s2.51,6.91,11.75,6.64Z" style="fill:#ff9a6c"></path><path d="M83.9,177.13c-.18.19-1.25-.65-2.79-.67s-2.68.74-2.85.55.11-.43.61-.79a3.84,3.84,0,0,1,2.28-.68,3.7,3.7,0,0,1,2.22.78C83.84,176.7,84,177.05,83.9,177.13Z" style="fill:#263238"></path><path d="M84.12,181.43a1.26,1.26,0,0,1-1.28,1.18,1.2,1.2,0,0,1-1.22-1.2,1.26,1.26,0,0,1,1.28-1.19A1.21,1.21,0,0,1,84.12,181.43Z" style="fill:#263238"></path><path d="M87.89,187.81a9.56,9.56,0,0,1,2.32-.28c.37,0,.71-.06.79-.3a1.86,1.86,0,0,0-.18-1.09q-.42-1.35-.9-2.82c-1.24-4-2.12-7.3-2-7.35s1.31,3.17,2.55,7.18c.3,1,.58,1.93.85,2.83a2,2,0,0,1,.1,1.43.91.91,0,0,1-.62.49,2.34,2.34,0,0,1-.62,0A9.2,9.2,0,0,1,87.89,187.81Z" style="fill:#263238"></path><path d="M83.18,172.13c-.14.34-1.38.1-2.86.19s-2.68.43-2.86.11c-.08-.16.15-.48.65-.79a4.88,4.88,0,0,1,4.36-.23C83,171.67,83.24,172,83.18,172.13Z" style="fill:#263238"></path><path d="M97.85,173.39c-.16.28-1.37,0-2.82,0s-2.67.17-2.83-.12c-.07-.13.17-.39.68-.61a4.93,4.93,0,0,1,2.15-.38,5.12,5.12,0,0,1,2.15.5C97.68,173,97.92,173.26,97.85,173.39Z" style="fill:#263238"></path><path d="M68.11,180.92c-.16-.08-6.22-2.26-6.4,4.05s6.18,5.19,6.2,5S68.11,180.92,68.11,180.92Z" style="fill:#ffbf9d"></path><path d="M66.05,187.53s-.11.08-.3.16a1.15,1.15,0,0,1-.82,0,2.74,2.74,0,0,1-1.19-2.48,3.55,3.55,0,0,1,.36-1.56,1.24,1.24,0,0,1,.85-.82.55.55,0,0,1,.64.32c.08.18,0,.3.07.31s.14-.1.09-.36a.67.67,0,0,0-.23-.4.83.83,0,0,0-.61-.18,1.53,1.53,0,0,0-1.17.94,3.72,3.72,0,0,0-.44,1.75A2.86,2.86,0,0,0,64.83,188a1.19,1.19,0,0,0,1-.13C66,187.69,66.07,187.55,66.05,187.53Z" style="fill:#ff9a6c"></path><path d="M59.6,170.8c1.29-2.24,1.57-4.9,2.25-7.39s2-5.07,4.47-6l.06,0c2.17-.9,4.87-1,6.68.55.4-3.28,3.25-5.91,6.44-6.79a21.32,21.32,0,0,1,11.41.77c2.38.92,4.7,2.85,7.52,5.7a29.33,29.33,0,0,1,3.26,3.86l2.89,8.56-2.33,4.53c-.14.31-.29.62-.46.92v0l-2,9.52c-.17-2.58-.09-11.59-.25-14.18a14.47,14.47,0,0,1-10.35-4.64c-1.43-1.55-2.57-3.5-4.47-4.41-2.45-1.18-5.35-.27-7.91.66l.11-.1A11.34,11.34,0,0,0,73.35,165,35.93,35.93,0,0,1,72,180.21c-.23.74-.87,2.26-1.59,2.54-1.41.57-1.81-.87-2.67-1.63a3.82,3.82,0,0,0-2.58-.6A54.89,54.89,0,0,1,63.32,174a5.81,5.81,0,0,1-2.65.21c.27-.65.53-1.3.79-2a3,3,0,0,1-1.12.53,1,1,0,0,1-1.08-.46C59,171.83,59.33,171.27,59.6,170.8Z" style="fill:#263238"></path><path d="M76,159a9.22,9.22,0,0,0-.91.86A6.57,6.57,0,0,0,73.68,163a11.31,11.31,0,0,0-.21,2.34c0,.85.08,1.75.16,2.71a24.54,24.54,0,0,1,.1,3,9.83,9.83,0,0,1-.19,1.6,3.36,3.36,0,0,1-.63,1.55,1.38,1.38,0,0,1-1.29.45,2.06,2.06,0,0,1-1.18-.64,4.73,4.73,0,0,1-.91-2.33l.19,0a8,8,0,0,1-1.09,1.94,2.75,2.75,0,0,1-1.78,1,1.7,1.7,0,0,1-.95-.15A1.56,1.56,0,0,1,65,173a1.11,1.11,0,0,1,.29-.72l.1.08a6,6,0,0,1-2,1.51,4.58,4.58,0,0,1-.61.24l-.22.06.2-.09c.14-.06.34-.14.6-.27a6.48,6.48,0,0,0,1.89-1.53l.09.09a1.18,1.18,0,0,0,0,1.36,1.39,1.39,0,0,0,.59.56,1.65,1.65,0,0,0,.86.13,2.59,2.59,0,0,0,1.65-1,7.66,7.66,0,0,0,1.06-1.89l.12-.3.07.32a4.58,4.58,0,0,0,.87,2.22,1.87,1.87,0,0,0,1.05.58,1.17,1.17,0,0,0,1.1-.38,3.13,3.13,0,0,0,.58-1.45,9.47,9.47,0,0,0,.19-1.57,24.45,24.45,0,0,0-.09-3c-.07-1-.14-1.86-.14-2.72a11.52,11.52,0,0,1,.24-2.37,6.49,6.49,0,0,1,1.46-3.1A3.81,3.81,0,0,1,76,159Z" style="fill:#455a64"></path><path d="M104.53,167.66l-.07.06-.23.17a3,3,0,0,1-.39.25,3.62,3.62,0,0,1-.56.3,8.1,8.1,0,0,1-3.93.76,10.4,10.4,0,0,1-5.57-2A18.06,18.06,0,0,1,89,161.77c-.69-1.11-1.25-2.24-1.86-3.29A12.12,12.12,0,0,0,85,155.7a6.29,6.29,0,0,0-2.67-1.57,4.49,4.49,0,0,0-1.4-.15,5.11,5.11,0,0,0-1.27.26,5.36,5.36,0,0,0-1.91,1.18,5.23,5.23,0,0,0-1,1.36,6.14,6.14,0,0,0-.46,1.38.62.62,0,0,1,0-.09l0-.29a4.7,4.7,0,0,1,.33-1,5.33,5.33,0,0,1,1-1.41,5.39,5.39,0,0,1,1.94-1.23,4.7,4.7,0,0,1,2.77-.15,6.52,6.52,0,0,1,2.76,1.61,12.09,12.09,0,0,1,2.13,2.81c.62,1.06,1.18,2.19,1.86,3.29a18.07,18.07,0,0,0,4.76,5.39,10.43,10.43,0,0,0,5.47,2,8.24,8.24,0,0,0,3.89-.68C104.11,168,104.51,167.63,104.53,167.66Z" style="fill:#455a64"></path><path d="M98,177.55c-.18.19-1.25-.65-2.8-.68s-2.68.75-2.84.55.1-.43.6-.78A3.84,3.84,0,0,1,95.2,176a3.7,3.7,0,0,1,2.22.78C97.89,177.12,98.05,177.47,98,177.55Z" style="fill:#263238"></path><path d="M96.57,181.43a1.26,1.26,0,0,1-1.28,1.18,1.2,1.2,0,0,1-1.22-1.2,1.26,1.26,0,0,1,1.28-1.19A1.21,1.21,0,0,1,96.57,181.43Z" style="fill:#263238"></path><path d="M100.91,160.5a4,4,0,0,0,3.28,1.84,9.59,9.59,0,0,0,1.37-.4c.45.27.34,1.81,0,2.24a8.55,8.55,0,0,1-1,1c1.52.81,2.89.41,4.51-.18a7.91,7.91,0,0,1-4.71,6.34,2.78,2.78,0,0,1-2.54,0,3.2,3.2,0,0,1-1.11-2A34.53,34.53,0,0,1,99.65,161Z" style="fill:#263238"></path><path d="M87.9,191.76c0,.08-.28.28-.85.37a3.42,3.42,0,0,1-2.19-.45,3.38,3.38,0,0,1-1.45-1.7c-.21-.54-.18-.9-.1-.92s.54,1.29,1.87,2.08A7.35,7.35,0,0,0,87.9,191.76Z" style="fill:#263238"></path><path d="M94.81,452.94v19.8l40.75-.19c-.3-4-22.66-12-22.66-12l.44-7.58Z" style="fill:#455a64"></path><g style="opacity:0.6000000000000001"><path d="M101.4,458.73a1.72,1.72,0,0,0-1.11,2,1.58,1.58,0,0,0,1.88,1.16,1.83,1.83,0,0,0,1.17-2.1,1.64,1.64,0,0,0-2.09-1" style="fill:#fff"></path></g><path d="M94.81,472.74v-3.16l38.9.45s2,1.19,1.85,2.52Z" style="fill:#263238"></path><path d="M112.9,460.9c0,.21-1,.32-2,1s-1.47,1.55-1.65,1.47.09-1.27,1.27-2.07S112.94,460.71,112.9,460.9Z" style="fill:#263238"></path><path d="M118.24,462.74c0,.19-.81.56-1.47,1.43s-.84,1.81-1,1.8-.34-1.17.5-2.24S118.23,462.54,118.24,462.74Z" style="fill:#263238"></path><path d="M120.64,467.78c-.18.05-.47-1,0-2.11s1.41-1.59,1.5-1.42-.48.78-.87,1.72S120.83,467.76,120.64,467.78Z" style="fill:#263238"></path><path d="M112.5,455.27c-.08.19-1-.08-2.11,0s-2,.47-2.09.3.73-.92,2-1S112.6,455.11,112.5,455.27Z" style="fill:#263238"></path><path d="M112.73,461.79a3,3,0,0,0,.09-1.21,6.59,6.59,0,0,0-1.08-3.12,6.23,6.23,0,0,0-1.6-1.65,1.41,1.41,0,0,0-1.37-.23,1.48,1.48,0,0,0-.8,1.3,5.23,5.23,0,0,0,3.58,4.63,5.15,5.15,0,0,0,5.5-1.6,3.48,3.48,0,0,0,.73-1.22,1.33,1.33,0,0,0,0-.79,1,1,0,0,0-.56-.57,1.75,1.75,0,0,0-1.27.12,8.34,8.34,0,0,0-3.28,2.79,3.19,3.19,0,0,0-.56,1.06,11.68,11.68,0,0,1,3.1-3c.55-.3,1.26-.74,1.84-.55a.55.55,0,0,1,.23.74,3,3,0,0,1-.64,1,4.66,4.66,0,0,1-4.92,1.4,4.75,4.75,0,0,1-3.23-4,1,1,0,0,1,.48-.86.94.94,0,0,1,.91.18,5.88,5.88,0,0,1,1.51,1.47,6.72,6.72,0,0,1,1.19,2.9C112.7,461.36,112.68,461.79,112.73,461.79Z" style="fill:#263238"></path><polygon points="75.88 453.94 75.88 460.34 75.42 471.83 60.15 472.2 59.6 460.34 60.05 453.11 75.88 453.94" style="fill:#455a64"></polygon><path d="M67.87,471c-.09,0,.13-3.52.49-7.86s.74-7.86.83-7.86-.13,3.51-.49,7.85S68,471,67.87,471Z" style="fill:#263238"></path><polygon points="75.48 469.92 60.05 470.09 60.05 472.2 75.49 472.18 75.48 469.92" style="fill:#263238"></polygon><path d="M60.09,463.31a2.13,2.13,0,0,1,.39-.61,10.42,10.42,0,0,1,1.36-1.42,10.68,10.68,0,0,1,2.47-1.63,8.25,8.25,0,0,1,9.52,1.73A6.91,6.91,0,0,1,74.94,463a2,2,0,0,1,.25.68,15.55,15.55,0,0,0-1.6-2.09,8.21,8.21,0,0,0-5.73-2.3,9.4,9.4,0,0,0-5.81,2.22C60.77,462.54,60.15,463.36,60.09,463.31Z" style="fill:#263238"></path><path d="M110.27,304.58l-1.78-2.79-57.08,2.68a99.14,99.14,0,0,0-1.68,18.7c0,5,2.46,15.24,2.46,15.24l2.71,55.13c.53,5,.93,65,.93,65H78.45l4.62-83.68c.48-9.32.13-23.43.6-33.74l7.77,31.57,5,21.57s-1,8.82-2,21.07c-1.49,17.35-1.62,42.49-1.62,42.49l23.23.37s3.22-29.64,5.74-46.95l2.17-20.66c0-3.45-1.5-11.9-1.77-13.29Z" style="fill:#263238"></path><path d="M88.74,343a6.62,6.62,0,0,1-1-.35c-.33-.13-.74-.29-1.19-.51s-1-.45-1.52-.78-1.16-.66-1.78-1.09-1.26-.9-1.92-1.42a26.79,26.79,0,0,1-6.87-8.44c-.36-.77-.73-1.48-1-2.18s-.51-1.35-.7-2-.32-1.17-.44-1.66a12.92,12.92,0,0,1-.24-1.27,7.13,7.13,0,0,1-.12-1.1c.09,0,.29,1.55,1.09,3.94.2.59.43,1.24.73,1.91s.65,1.39,1,2.13a30.69,30.69,0,0,0,3,4.49,30,30,0,0,0,3.79,3.84c.65.52,1.26,1,1.87,1.43s1.19.79,1.73,1.12C87.29,342.41,88.77,342.94,88.74,343Z" style="fill:#455a64"></path><path d="M158.28,226a50.38,50.38,0,0,1,2.44-4.93c.62-.83,3.42-4,3.42-4s5.62-2.6,6.53-2.34a6.91,6.91,0,0,1,1.56.65l7.84-5.49s1.84-1,2.56.13-.27,1.92-.69,2.43-6.11,5.39-6.11,5.39l-.21.38s2.12.66,2.13,1.81a5.58,5.58,0,0,1-.76,2.44,2,2,0,0,1,.65,2.18l-.42,1.41a2.48,2.48,0,0,1,1.08,2.25c-.21,1.41-3.57,3.84-3.57,3.84s-6.11,2.72-7.38,2.84-4.15.85-4.15.85Z" style="fill:#ffbf9d"></path><path d="M173.92,214.19a8.47,8.47,0,0,1-1.41,1.12,19,19,0,0,1-3.79,2.2,25.11,25.11,0,0,0-4.05,1.46,7,7,0,0,0-1.36,1.1c-.05,0,.24-.72,1.21-1.36a18.07,18.07,0,0,1,4-1.59,25.55,25.55,0,0,0,3.77-2.06A7.62,7.62,0,0,1,173.92,214.19Z" style="fill:#ff9a6c"></path><path d="M175.78,218c.05,0,0,.23-.22.43a3.66,3.66,0,0,1-.92.59c-.77.35-1.41.52-1.46.42s.53-.47,1.28-.81c.37-.17.69-.32.92-.44S175.73,217.94,175.78,218Z" style="fill:#ff9a6c"></path><path d="M177,222.25c.08.08-.17.49-.63.87s-.9.55-1,.45.26-.42.69-.78S176.94,222.17,177,222.25Z" style="fill:#ff9a6c"></path><path d="M177.45,225.78c.11,0,0,.64-.62,1.1s-1.18.5-1.2.39.46-.32.93-.72S177.34,225.73,177.45,225.78Z" style="fill:#ff9a6c"></path><polygon points="158.55 225.18 148.04 231.98 152.21 245.5 165.58 234.38 164.77 228.34 158.55 225.18" style="fill:#ffbf9d"></polygon><path d="M45.44,228.13S38.63,266.79,39,270.4s1.46,8.77,6.25,10.35a13.63,13.63,0,0,0,7.88,0l1.8-22.91-6.73-24.57Z" style="fill:#ffbf9d"></path><path d="M98.48,210.67l5.35,2.78,3.23,30.23,1.06,10.25,1.67,28.45c.5,2.47,2.87,28.73,2.87,28.73l-63.92,1.53c1-.29,1.87-11.47,2.46-13.87l1.89-16.66L51.2,258.26s-6.64-29.1-5.76-31.4,5.12-7.64,13.42-13.47c3.31-2.33,8.11-5.24,8.11-5.24l21.88.11Z" style="fill:#455a64"></path><path d="M133.28,240.28s-14.33-12.67-19.71-18c-6-6-10.25-9-12.11-9.12-.53,0-6.2,3-6.2,3s-1.47,1.69-4,10.28,12.14,14.19,12.14,14.19l7,7c1.33,1.21,11.17,10,18.36,12.82a11.31,11.31,0,0,0,11.52-2l22-21.24c-3.38-9.1-3.72-11.95-3.72-11.95" style="fill:#ffbf9d"></path><polygon points="45.44 226.86 38.95 259.71 54.89 262.81 50.95 227.32 45.44 226.86" style="fill:#455a64"></polygon><path d="M48,227.91c.14,0,1.33,11.77,2.64,26.32s2.28,26.35,2.14,26.36-1.33-11.77-2.65-26.32S47.82,227.92,48,227.91Z" style="fill:#263238"></path><path d="M89.68,232.31l23,19.28,14.43-19.78s-17.43-15.26-21.58-17.48c-5.13-2.74-9-4.77-13,.12A17,17,0,0,0,89.68,232.31Z" style="fill:#455a64"></path><path d="M112.66,251.59a2.47,2.47,0,0,1-.46-.3l-1.25-.95-4.53-3.55L91.55,234.87h0l-.29-.33a14.58,14.58,0,0,1-3.39-10,13.73,13.73,0,0,1,3.06-8.12,12.83,12.83,0,0,1,4.62-3.62,8.83,8.83,0,0,1,1.51-.55,2,2,0,0,1,.54-.11c0,.05-.73.23-2,.84a13,13,0,0,0-4.42,3.67,13.41,13.41,0,0,0-2.87,7.91,14.25,14.25,0,0,0,3.3,9.67l.27.31,0,0,14.77,12,4.43,3.69,1.18,1A2.35,2.35,0,0,1,112.66,251.59Z" style="fill:#263238"></path><g style="opacity:0.30000000000000004"><path d="M91.71,234.67s5.05,9.63,16.41,19.26l-.68-6.55Z"></path></g><path d="M87.37,277.52a5.65,5.65,0,0,1-1.06.7c-.7.42-1.73,1-3,1.73-2.55,1.42-6.11,3.32-10.09,5.32s-7.64,3.7-10.31,4.88c-1.33.59-2.42,1.06-3.17,1.37a6,6,0,0,1-1.2.43,6.51,6.51,0,0,1,1.11-.62l3.11-1.51c2.62-1.27,6.25-3,10.23-5s7.56-3.84,10.15-5.18l3.07-1.58A6.11,6.11,0,0,1,87.37,277.52Z" style="fill:#263238"></path></g></svg>
